<svg xmlns="http://www.w3.org/2000/svg" width="1220" height="520" viewBox="0 0 1220 520">
<rect width="100%" height="100%" fill="white"/>
<text x="45" y="38" font-family="sans-serif" font-size="23" font-weight="bold">CVE-2024-3400: occurrence versus public availability</text>
<text x="1170" y="62" text-anchor="end" font-family="sans-serif" font-size="12">PILOT — online EPSS verification gate still required</text>
<line x1="80" y1="245" x2="1140" y2="245" stroke="#222" stroke-width="2"/>
<circle cx="80.0" cy="245" r="8" fill="white" stroke="#111"/>
<line x1="80.0" y1="245" x2="80.0" y2="170" stroke="#777"/>
<text x="80.0" y="155" text-anchor="middle" font-family="sans-serif" font-size="12" font-weight="bold">2024-03-26</text>
<text x="80.0" y="173" text-anchor="middle" font-family="sans-serif" font-size="10">occurrence only retrospective</text>
<text x="80.0" y="189" text-anchor="middle" font-family="sans-serif" font-size="10">not public yet</text>
<circle cx="231.4" cy="245" r="8" fill="white" stroke="#111"/>
<line x1="231.4" y1="245" x2="231.4" y2="315" stroke="#777"/>
<text x="231.4" y="335" text-anchor="middle" font-family="sans-serif" font-size="12" font-weight="bold">2024-04-10</text>
<text x="231.4" y="353" text-anchor="middle" font-family="sans-serif" font-size="10">private observation</text>
<text x="231.4" y="369" text-anchor="middle" font-family="sans-serif" font-size="10">not public yet</text>
<circle cx="382.9" cy="245" r="8" fill="white" stroke="#111"/>
<line x1="382.9" y1="245" x2="382.9" y2="170" stroke="#777"/>
<text x="382.9" y="155" text-anchor="middle" font-family="sans-serif" font-size="12" font-weight="bold">2024-04-11</text>
<text x="382.9" y="173" text-anchor="middle" font-family="sans-serif" font-size="10">private observation</text>
<text x="382.9" y="189" text-anchor="middle" font-family="sans-serif" font-size="10">not public yet</text>
<circle cx="534.3" cy="245" r="8" fill="white" stroke="#111"/>
<line x1="534.3" y1="245" x2="534.3" y2="315" stroke="#777"/>
<text x="534.3" y="335" text-anchor="middle" font-family="sans-serif" font-size="12" font-weight="bold">2024-04-12</text>
<text x="534.3" y="353" text-anchor="middle" font-family="sans-serif" font-size="10">public disclosure</text>
<text x="534.3" y="369" text-anchor="middle" font-family="sans-serif" font-size="10">public sources: 1</text>
<circle cx="685.7" cy="245" r="8" fill="white" stroke="#111"/>
<line x1="685.7" y1="245" x2="685.7" y2="170" stroke="#777"/>
<text x="685.7" y="155" text-anchor="middle" font-family="sans-serif" font-size="12" font-weight="bold">2024-04-12</text>
<text x="685.7" y="173" text-anchor="middle" font-family="sans-serif" font-size="10">public disclosure</text>
<text x="685.7" y="189" text-anchor="middle" font-family="sans-serif" font-size="10">public sources: 4</text>
<circle cx="837.1" cy="245" r="8" fill="white" stroke="#111"/>
<line x1="837.1" y1="245" x2="837.1" y2="315" stroke="#777"/>
<text x="837.1" y="335" text-anchor="middle" font-family="sans-serif" font-size="12" font-weight="bold">2024-04-13</text>
<text x="837.1" y="353" text-anchor="middle" font-family="sans-serif" font-size="10">public catalog update</text>
<text x="837.1" y="369" text-anchor="middle" font-family="sans-serif" font-size="10">public sources: 5</text>
<circle cx="988.6" cy="245" r="8" fill="white" stroke="#111"/>
<line x1="988.6" y1="245" x2="988.6" y2="170" stroke="#777"/>
<text x="988.6" y="155" text-anchor="middle" font-family="sans-serif" font-size="12" font-weight="bold">2024-04-14</text>
<text x="988.6" y="173" text-anchor="middle" font-family="sans-serif" font-size="10">vendor update</text>
<text x="988.6" y="189" text-anchor="middle" font-family="sans-serif" font-size="10">public sources: 6</text>
<circle cx="1140.0" cy="245" r="8" fill="white" stroke="#111"/>
<line x1="1140.0" y1="245" x2="1140.0" y2="315" stroke="#777"/>
<text x="1140.0" y="335" text-anchor="middle" font-family="sans-serif" font-size="12" font-weight="bold">2024-04-15</text>
<text x="1140.0" y="353" text-anchor="middle" font-family="sans-serif" font-size="10">predictive update</text>
<text x="1140.0" y="369" text-anchor="middle" font-family="sans-serif" font-size="10">public sources: 7</text>
<text x="610" y="470" text-anchor="middle" font-family="sans-serif" font-size="12">Retrospective occurrence dates are preserved but do not release evidence before publication.</text>
</svg>
