<svg xmlns="http://www.w3.org/2000/svg" width="1100" height="520" viewBox="0 0 1100 520">
<rect width="100%" height="100%" fill="white"/>
<text x="90" y="35" font-family="sans-serif" font-size="20" font-weight="bold">Ghost-Logger temporal trajectory</text>
<text x="1060" y="35" text-anchor="end" font-family="sans-serif" font-size="12">PILOT — derived from GL-STAGE2-0-1-PILOT-001</text>
<line x1="90" y1="420" x2="1060" y2="420" stroke="#222"/>
<line x1="90" y1="80" x2="90" y2="420" stroke="#222"/>
<line x1="85" y1="420.0" x2="1060" y2="420.0" stroke="#ddd"/>
<text x="78" y="424.0" text-anchor="end" font-family="sans-serif" font-size="11">0.00</text>
<line x1="85" y1="335.0" x2="1060" y2="335.0" stroke="#ddd"/>
<text x="78" y="339.0" text-anchor="end" font-family="sans-serif" font-size="11">0.25</text>
<line x1="85" y1="250.0" x2="1060" y2="250.0" stroke="#ddd"/>
<text x="78" y="254.0" text-anchor="end" font-family="sans-serif" font-size="11">0.50</text>
<line x1="85" y1="165.0" x2="1060" y2="165.0" stroke="#ddd"/>
<text x="78" y="169.0" text-anchor="end" font-family="sans-serif" font-size="11">0.75</text>
<line x1="85" y1="80.0" x2="1060" y2="80.0" stroke="#ddd"/>
<text x="78" y="84.0" text-anchor="end" font-family="sans-serif" font-size="11">1.00</text>
<polyline points="116.9,131.0 224.7,131.0 278.6,131.0 359.4,131.0 1060.0,131.0" fill="none" stroke="#111" stroke-width="2.5"/>
<circle cx="116.9" cy="131.0" r="4" fill="#111"/>
<circle cx="224.7" cy="131.0" r="4" fill="#111"/>
<circle cx="278.6" cy="131.0" r="4" fill="#111"/>
<circle cx="359.4" cy="131.0" r="4" fill="#111"/>
<circle cx="1060.0" cy="131.0" r="4" fill="#111"/>
<polyline points="116.9,386.0 224.7,80.0 278.6,80.0 359.4,80.0 1060.0,80.0" fill="none" stroke="#555" stroke-width="2.5"/>
<circle cx="116.9" cy="386.0" r="4" fill="#555"/>
<circle cx="224.7" cy="80.0" r="4" fill="#555"/>
<circle cx="278.6" cy="80.0" r="4" fill="#555"/>
<circle cx="359.4" cy="80.0" r="4" fill="#555"/>
<circle cx="1060.0" cy="80.0" r="4" fill="#555"/>
<polyline points="116.9,165.0 224.7,165.0 278.6,165.0 359.4,165.0 1060.0,165.0" fill="none" stroke="#888" stroke-width="2.5"/>
<circle cx="116.9" cy="165.0" r="4" fill="#888"/>
<circle cx="224.7" cy="165.0" r="4" fill="#888"/>
<circle cx="278.6" cy="165.0" r="4" fill="#888"/>
<circle cx="359.4" cy="165.0" r="4" fill="#888"/>
<circle cx="1060.0" cy="165.0" r="4" fill="#888"/>
<polyline points="116.9,420.0 224.7,420.0 278.6,420.0 359.4,420.0 1060.0,420.0" fill="none" stroke="#bbb" stroke-width="2.5"/>
<circle cx="116.9" cy="420.0" r="4" fill="#bbb"/>
<circle cx="224.7" cy="420.0" r="4" fill="#bbb"/>
<circle cx="278.6" cy="420.0" r="4" fill="#bbb"/>
<circle cx="359.4" cy="420.0" r="4" fill="#bbb"/>
<circle cx="1060.0" cy="420.0" r="4" fill="#bbb"/>
<line x1="116.94444444444444" y1="420" x2="116.94444444444444" y2="428" stroke="#222"/>
<text x="116.94444444444444" y="444" text-anchor="middle" font-family="sans-serif" font-size="11">T+2h</text>
<text x="116.94444444444444" y="464" text-anchor="middle" font-family="sans-serif" font-size="10">Document No-Report</text>
<line x1="224.72222222222223" y1="420" x2="224.72222222222223" y2="428" stroke="#222"/>
<text x="224.72222222222223" y="444" text-anchor="middle" font-family="sans-serif" font-size="11">T+10h</text>
<text x="224.72222222222223" y="464" text-anchor="middle" font-family="sans-serif" font-size="10">Escalate</text>
<text x="224.72222222222223" y="94" text-anchor="middle" font-family="sans-serif" font-size="11" font-weight="bold">conflict</text>
<line x1="278.6111111111111" y1="420" x2="278.6111111111111" y2="428" stroke="#222"/>
<text x="278.6111111111111" y="444" text-anchor="middle" font-family="sans-serif" font-size="11">T+14h</text>
<text x="278.6111111111111" y="464" text-anchor="middle" font-family="sans-serif" font-size="10">Report-Ready</text>
<line x1="359.44444444444446" y1="420" x2="359.44444444444446" y2="428" stroke="#222"/>
<text x="359.44444444444446" y="444" text-anchor="middle" font-family="sans-serif" font-size="11">T+20h</text>
<text x="359.44444444444446" y="464" text-anchor="middle" font-family="sans-serif" font-size="10">Report-Ready</text>
<line x1="1060.0" y1="420" x2="1060.0" y2="428" stroke="#222"/>
<text x="1060.0" y="444" text-anchor="middle" font-family="sans-serif" font-size="11">T+72h</text>
<text x="1060.0" y="464" text-anchor="middle" font-family="sans-serif" font-size="10">Report-Ready</text>
<line x1="90" y1="490" x2="112" y2="490" stroke="#111" stroke-width="3"/>
<text x="118" y="494" font-family="sans-serif" font-size="12">E_t</text>
<line x1="190" y1="490" x2="212" y2="490" stroke="#555" stroke-width="3"/>
<text x="218" y="494" font-family="sans-serif" font-size="12">A_t</text>
<line x1="290" y1="490" x2="312" y2="490" stroke="#888" stroke-width="3"/>
<text x="318" y="494" font-family="sans-serif" font-size="12">I_t</text>
<line x1="390" y1="490" x2="412" y2="490" stroke="#bbb" stroke-width="3"/>
<text x="418" y="494" font-family="sans-serif" font-size="12">U_t</text>
</svg>
