<svg xmlns="http://www.w3.org/2000/svg" width="1200" height="240" viewBox="0 0 1200 240">
<rect width="100%" height="100%" fill="white"/>
<text x="35" y="35" font-family="sans-serif" font-size="20" font-weight="bold">Stage 2 pilot architecture</text>
<text x="1160" y="35" text-anchor="end" font-family="sans-serif" font-size="12">PILOT — not final paper evidence</text>
<rect x="35" y="72" width="160" height="92" rx="8" fill="#f2f2f2" stroke="#222" stroke-width="1.5"/>
<text x="115.0" y="110" text-anchor="middle" font-family="sans-serif" font-size="14">Real-format</text>
<text x="115.0" y="132" text-anchor="middle" font-family="sans-serif" font-size="14">source artefacts</text>
<line x1="195" y1="118.0" x2="221" y2="118.0" stroke="#222" stroke-width="2"/>
<polygon points="221,118.0 211,112.0 211,124.0" fill="#222"/>
<rect x="229" y="72" width="160" height="92" rx="8" fill="#f2f2f2" stroke="#222" stroke-width="1.5"/>
<text x="309.0" y="110" text-anchor="middle" font-family="sans-serif" font-size="14">Source registry</text>
<text x="309.0" y="132" text-anchor="middle" font-family="sans-serif" font-size="14">+ hashes</text>
<line x1="389" y1="118.0" x2="415" y2="118.0" stroke="#222" stroke-width="2"/>
<polygon points="415,118.0 405,112.0 405,124.0" fill="#222"/>
<rect x="423" y="72" width="160" height="92" rx="8" fill="#f2f2f2" stroke="#222" stroke-width="1.5"/>
<text x="503.0" y="110" text-anchor="middle" font-family="sans-serif" font-size="14">Format-specific</text>
<text x="503.0" y="132" text-anchor="middle" font-family="sans-serif" font-size="14">parsers</text>
<line x1="583" y1="118.0" x2="609" y2="118.0" stroke="#222" stroke-width="2"/>
<polygon points="609,118.0 599,112.0 599,124.0" fill="#222"/>
<rect x="617" y="72" width="160" height="92" rx="8" fill="#f2f2f2" stroke="#222" stroke-width="1.5"/>
<text x="697.0" y="110" text-anchor="middle" font-family="sans-serif" font-size="14">Identity +</text>
<text x="697.0" y="132" text-anchor="middle" font-family="sans-serif" font-size="14">normalized claims</text>
<line x1="777" y1="118.0" x2="803" y2="118.0" stroke="#222" stroke-width="2"/>
<polygon points="803,118.0 793,112.0 793,124.0" fill="#222"/>
<rect x="811" y="72" width="160" height="92" rx="8" fill="#f2f2f2" stroke="#222" stroke-width="1.5"/>
<text x="891.0" y="110" text-anchor="middle" font-family="sans-serif" font-size="14">Conflict, scoring</text>
<text x="891.0" y="132" text-anchor="middle" font-family="sans-serif" font-size="14">+ deadline engines</text>
<line x1="971" y1="118.0" x2="997" y2="118.0" stroke="#222" stroke-width="2"/>
<polygon points="997,118.0 987,112.0 987,124.0" fill="#222"/>
<rect x="1005" y="72" width="160" height="92" rx="8" fill="#f2f2f2" stroke="#222" stroke-width="1.5"/>
<text x="1085.0" y="110" text-anchor="middle" font-family="sans-serif" font-size="14">EvidencePack +</text>
<text x="1085.0" y="132" text-anchor="middle" font-family="sans-serif" font-size="14">audit outputs</text>
</svg>
