<svg xmlns="http://www.w3.org/2000/svg" width="1160" height="610" viewBox="0 0 1160 610">
<rect width="100%" height="100%" fill="white"/>
<defs><pattern id="baselineHatch" width="6" height="6" patternUnits="userSpaceOnUse" patternTransform="rotate(45)"><line x1="0" y1="0" x2="0" y2="6" stroke="#555" stroke-width="2"/></pattern></defs>
<text x="45" y="42" font-family="sans-serif" font-size="23" font-weight="bold">Matched baseline comparison across four primary scenario families</text>
<text x="1115" y="66" text-anchor="end" font-family="sans-serif" font-size="12">PILOT — controlled computational proxy</text>
<line x1="105" y1="495.0" x2="1085" y2="495.0" stroke="#ddd"/>
<text x="92" y="499.0" text-anchor="end" font-family="sans-serif" font-size="11">0.0</text>
<line x1="105" y1="417.0" x2="1085" y2="417.0" stroke="#ddd"/>
<text x="92" y="421.0" text-anchor="end" font-family="sans-serif" font-size="11">0.2</text>
<line x1="105" y1="339.0" x2="1085" y2="339.0" stroke="#ddd"/>
<text x="92" y="343.0" text-anchor="end" font-family="sans-serif" font-size="11">0.4</text>
<line x1="105" y1="261.0" x2="1085" y2="261.0" stroke="#ddd"/>
<text x="92" y="265.0" text-anchor="end" font-family="sans-serif" font-size="11">0.6</text>
<line x1="105" y1="183.0" x2="1085" y2="183.0" stroke="#ddd"/>
<text x="92" y="187.0" text-anchor="end" font-family="sans-serif" font-size="11">0.8</text>
<line x1="105" y1="105.0" x2="1085" y2="105.0" stroke="#ddd"/>
<text x="92" y="109.0" text-anchor="end" font-family="sans-serif" font-size="11">1.0</text>
<rect x="138" y="105.0" width="34" height="390.0" fill="#333"/>
<rect x="188" y="196.8" width="34" height="298.2" fill="url(#baselineHatch)" stroke="#555"/>
<text x="155" y="98.0" text-anchor="middle" font-family="sans-serif" font-size="10">1.00</text>
<text x="205" y="189.8" text-anchor="middle" font-family="sans-serif" font-size="10">0.76</text>
<text x="180" y="523" text-anchor="middle" font-family="sans-serif" font-size="13" font-weight="bold">EC</text>
<rect x="273" y="105.0" width="34" height="390.0" fill="#333"/>
<rect x="323" y="495.0" width="34" height="0.0" fill="url(#baselineHatch)" stroke="#555"/>
<text x="290" y="98.0" text-anchor="middle" font-family="sans-serif" font-size="10">1.00</text>
<text x="340" y="488.0" text-anchor="middle" font-family="sans-serif" font-size="10">0.00</text>
<text x="315" y="523" text-anchor="middle" font-family="sans-serif" font-size="13" font-weight="bold">TR</text>
<rect x="408" y="105.0" width="34" height="390.0" fill="#333"/>
<rect x="458" y="105.0" width="34" height="390.0" fill="url(#baselineHatch)" stroke="#555"/>
<text x="425" y="98.0" text-anchor="middle" font-family="sans-serif" font-size="10">1.00</text>
<text x="475" y="98.0" text-anchor="middle" font-family="sans-serif" font-size="10">1.00</text>
<text x="450" y="523" text-anchor="middle" font-family="sans-serif" font-size="13" font-weight="bold">CD</text>
<rect x="543" y="105.0" width="34" height="390.0" fill="#333"/>
<rect x="593" y="495.0" width="34" height="0.0" fill="url(#baselineHatch)" stroke="#555"/>
<text x="560" y="98.0" text-anchor="middle" font-family="sans-serif" font-size="10">1.00</text>
<text x="610" y="488.0" text-anchor="middle" font-family="sans-serif" font-size="10">0.00</text>
<text x="585" y="523" text-anchor="middle" font-family="sans-serif" font-size="13" font-weight="bold">CA</text>
<rect x="678" y="105.0" width="34" height="390.0" fill="#333"/>
<rect x="728" y="105.0" width="34" height="390.0" fill="url(#baselineHatch)" stroke="#555"/>
<text x="695" y="98.0" text-anchor="middle" font-family="sans-serif" font-size="10">1.00</text>
<text x="745" y="98.0" text-anchor="middle" font-family="sans-serif" font-size="10">1.00</text>
<text x="720" y="523" text-anchor="middle" font-family="sans-serif" font-size="13" font-weight="bold">AR</text>
<rect x="813" y="105.0" width="34" height="390.0" fill="#333"/>
<rect x="863" y="218.8" width="34" height="276.2" fill="url(#baselineHatch)" stroke="#555"/>
<text x="830" y="98.0" text-anchor="middle" font-family="sans-serif" font-size="10">1.00</text>
<text x="880" y="211.8" text-anchor="middle" font-family="sans-serif" font-size="10">0.71</text>
<text x="855" y="523" text-anchor="middle" font-family="sans-serif" font-size="13" font-weight="bold">SC</text>
<rect x="948" y="105.0" width="34" height="390.0" fill="#333"/>
<rect x="998" y="495.0" width="34" height="0.0" fill="url(#baselineHatch)" stroke="#555"/>
<text x="965" y="98.0" text-anchor="middle" font-family="sans-serif" font-size="10">1.00</text>
<text x="1015" y="488.0" text-anchor="middle" font-family="sans-serif" font-size="10">0.00</text>
<text x="990" y="523" text-anchor="middle" font-family="sans-serif" font-size="13" font-weight="bold">EPG</text>
<rect x="405" y="552" width="18" height="18" fill="#333"/>
<text x="432" y="566" font-family="sans-serif" font-size="12">Orchestrated artefact</text>
<rect x="610" y="552" width="18" height="18" fill="url(#baselineHatch)" stroke="#555"/>
<text x="637" y="566" font-family="sans-serif" font-size="12">Structured un-orchestrated baseline</text>
<text x="580" y="594" text-anchor="middle" font-family="sans-serif" font-size="11">CD and CA means use only primary scenarios where the metric is applicable. AR equality is retained rather than hidden.</text>
</svg>
